# Blender v2.79 (sub 0) OBJ File: ''
# www.blender.org
mtllib arrow2.mtl
o narrowarrow
v 0.705473 0.208675 -0.638413
v 0.384572 -0.102058 -0.347009
v 0.355376 -0.098087 -0.378071
v 0.326047 -0.086044 -0.406842
v 0.297711 -0.066392 -0.432216
v 0.271457 -0.039883 -0.453217
v 0.248294 -0.007540 -0.469039
v 0.229112 0.029398 -0.479074
v 0.214649 0.069509 -0.482936
v 0.205459 0.111253 -0.480476
v 0.201897 0.153024 -0.471789
v 0.204099 0.193219 -0.457210
v 0.211981 0.230291 -0.437298
v 0.225240 0.262817 -0.412817
v 0.243365 0.289547 -0.384711
v 0.265661 0.309453 -0.354057
v 0.291271 0.321771 -0.322035
v 0.319210 0.326027 -0.289875
v 0.348406 0.322056 -0.258812
v 0.377735 0.310013 -0.230041
v 0.406071 0.290361 -0.204667
v 0.432325 0.263852 -0.183666
v 0.455488 0.231509 -0.167844
v 0.474670 0.194571 -0.157809
v 0.489134 0.154460 -0.153948
v 0.498323 0.112717 -0.156407
v 0.501885 0.070945 -0.165094
v 0.499683 0.030750 -0.179673
v 0.491801 -0.006322 -0.199586
v 0.478543 -0.038849 -0.224066
v 0.460418 -0.065578 -0.252172
v 0.438121 -0.085484 -0.282826
v 0.412511 -0.097801 -0.314849
v 0.422963 0.159791 -0.225458
v 0.270903 0.180467 -0.387242
v 0.370809 -0.011915 -0.334978
v 0.411859 0.181172 -0.231267
v 0.266340 0.159008 -0.398769
v 0.386982 -0.009452 -0.316361
v 0.398451 0.199895 -0.240426
v 0.265066 0.135741 -0.407208
v 0.401807 -0.002322 -0.297825
v 0.383254 0.215239 -0.252583
v 0.267128 0.111561 -0.412237
v 0.414712 0.009201 -0.280081
v 0.366851 0.226616 -0.267270
v 0.272447 0.087397 -0.413661
v 0.425205 0.024674 -0.263811
v 0.349874 0.233587 -0.283924
v 0.353909 -0.009618 -0.352959
v 0.280819 0.064178 -0.411425
v 0.432879 0.043501 -0.249641
v 0.291923 0.042797 -0.405616
v 0.332974 0.235885 -0.301905
v 0.437442 0.064961 -0.238114
v 0.305331 0.024074 -0.396458
v 0.316800 0.233421 -0.320522
v 0.438717 0.088228 -0.229675
v 0.320529 0.008730 -0.384301
v 0.301976 0.226291 -0.339058
v 0.436655 0.112408 -0.224647
v 0.336931 -0.002647 -0.369613
v 0.289070 0.214768 -0.356802
v 0.431335 0.136572 -0.223223
v 0.278578 0.199296 -0.373072
v -0.694466 -0.079475 0.722692
v -0.710868 -0.068099 0.708005
v -0.679268 -0.094820 0.734850
v -0.760919 -0.061293 0.654753
v -0.744746 -0.058830 0.673370
v -0.772388 -0.270640 0.578817
v -0.785796 -0.251917 0.569659
v -0.640278 -0.229753 0.737161
v -0.644840 -0.251213 0.725634
v -0.796900 -0.230536 0.563850
v -0.805272 -0.207318 0.561614
v -0.727846 -0.061128 0.691351
v -0.652515 -0.270041 0.711464
v -0.663007 -0.285514 0.695194
v -0.810592 -0.183154 0.563038
v -0.812654 -0.158974 0.568067
v -0.675913 -0.297037 0.677450
v -0.690738 -0.304167 0.658914
v -0.706911 -0.306630 0.640297
v -0.811379 -0.135707 0.576506
v -0.806816 -0.114247 0.588033
v -0.665860 -0.113543 0.744008
v -0.654756 -0.134924 0.749817
v -0.799142 -0.095419 0.602203
v -0.788649 -0.079946 0.618473
v -0.775744 -0.068423 0.636217
v -0.723811 -0.304332 0.622316
v -0.740789 -0.297361 0.605662
v -0.757191 -0.285984 0.590975
v -0.646384 -0.158142 0.752052
v -0.641065 -0.182306 0.750629
v -0.639003 -0.206486 0.745600
vt 0.000000 0.000000
vt 1.000000 0.000000
vt 1.000000 1.000000
vt 1.000000 0.000000
vt 1.000000 1.000000
vt 1.000000 0.000000
vt 1.000000 1.000000
vt 1.000000 0.000000
vt 1.000000 1.000000
vt 1.000000 0.000000
vt 1.000000 1.000000
vt 1.000000 0.000000
vt 1.000000 1.000000
vt 1.000000 0.000000
vt 1.000000 1.000000
vt 1.000000 0.000000
vt 1.000000 1.000000
vt 1.000000 0.000000
vt 1.000000 1.000000
vt 1.000000 0.000000
vt 1.000000 1.000000
vt 1.000000 0.000000
vt 1.000000 1.000000
vt 1.000000 0.000000
vt 1.000000 1.000000
vt 1.000000 0.000000
vt 1.000000 1.000000
vt 1.000000 0.000000
vt 1.000000 1.000000
vt 1.000000 0.000000
vt 1.000000 1.000000
vt 1.000000 0.000000
vt 1.000000 1.000000
vt 1.000000 0.000000
vt 1.000000 1.000000
vt 1.000000 0.000000
vt 1.000000 1.000000
vt 1.000000 0.000000
vt 1.000000 1.000000
vt 1.000000 0.000000
vt 1.000000 1.000000
vt 1.000000 0.000000
vt 1.000000 1.000000
vt 1.000000 0.000000
vt 1.000000 1.000000
vt 1.000000 0.000000
vt 1.000000 1.000000
vt 1.000000 0.000000
vt 1.000000 1.000000
vt 1.000000 0.000000
vt 1.000000 1.000000
vt 1.000000 0.000000
vt 1.000000 1.000000
vt 1.000000 0.000000
vt 1.000000 1.000000
vt 1.000000 0.000000
vt 1.000000 1.000000
vt 1.000000 0.000000
vt 1.000000 1.000000
vt 1.000000 0.000000
vt 1.000000 1.000000
vt 1.000000 0.000000
vt 1.000000 1.000000
vt 1.000000 0.000000
vt 1.000000 1.000000
vt 0.000000 0.000000
vt 0.000000 1.000000
vt 0.000000 0.000000
vt 0.000000 1.000000
vt 0.000000 0.000000
vt 0.000000 1.000000
vt 0.000000 0.000000
vt 0.000000 1.000000
vt 0.000000 0.000000
vt 0.000000 1.000000
vt 0.000000 0.000000
vt 0.000000 1.000000
vt 0.000000 0.000000
vt 0.000000 1.000000
vt 0.000000 0.000000
vt 0.000000 1.000000
vt 0.000000 0.000000
vt 0.000000 1.000000
vt 0.000000 0.000000
vt 0.000000 1.000000
vt 0.000000 0.000000
vt 0.000000 1.000000
vt 0.000000 0.000000
vt 0.000000 1.000000
vt 0.000000 0.000000
vt 0.000000 1.000000
vt 0.000000 0.000000
vt 0.000000 1.000000
vt 0.000000 0.000000
vt 0.000000 1.000000
vt 0.000000 0.000000
vt 0.000000 1.000000
vt 0.000000 0.000000
vt 0.000000 1.000000
vt 0.000000 0.000000
vt 0.000000 1.000000
vt 0.000000 0.000000
vt 0.000000 1.000000
vt 0.000000 0.000000
vt 0.000000 1.000000
vt 0.000000 0.000000
vt 0.000000 1.000000
vt 0.000000 0.000000
vt 0.000000 1.000000
vt 0.000000 0.000000
vt 0.000000 1.000000
vt 0.000000 0.000000
vt 0.000000 1.000000
vt 0.000000 0.000000
vt 0.000000 1.000000
vt 0.000000 0.000000
vt 0.000000 1.000000
vt 0.000000 0.000000
vt 0.000000 1.000000
vt 0.000000 0.000000
vt 0.000000 1.000000
vt 0.000000 0.000000
vt 0.000000 1.000000
vt 0.000000 0.000000
vt 0.000000 1.000000
vt 0.000000 0.000000
vt 0.000000 1.000000
vt 0.000000 0.000000
vt 0.000000 1.000000
vt 0.500000 1.000000
vt 0.597545 0.990393
vt 0.402456 0.990393
vt 0.000000 0.000000
vt 1.000000 0.000000
vt 0.000000 1.000000
vt 0.000000 0.000000
vt 1.000000 0.000000
vt 0.000000 1.000000
vt 0.000000 0.000000
vt 1.000000 0.000000
vt 0.000000 1.000000
vt 0.000000 0.000000
vt 1.000000 0.000000
vt 0.000000 1.000000
vt 0.000000 0.000000
vt 1.000000 0.000000
vt 0.000000 1.000000
vt 0.000000 0.000000
vt 1.000000 0.000000
vt 0.000000 1.000000
vt 0.000000 0.000000
vt 1.000000 0.000000
vt 0.000000 1.000000
vt 0.000000 0.000000
vt 1.000000 0.000000
vt 0.000000 1.000000
vt 0.000000 0.000000
vt 1.000000 0.000000
vt 0.000000 1.000000
vt 0.000000 0.000000
vt 1.000000 0.000000
vt 0.000000 1.000000
vt 0.000000 0.000000
vt 1.000000 0.000000
vt 0.000000 1.000000
vt 0.000000 0.000000
vt 1.000000 0.000000
vt 0.000000 1.000000
vt 0.000000 0.000000
vt 1.000000 0.000000
vt 0.000000 1.000000
vt 0.000000 0.000000
vt 1.000000 0.000000
vt 0.000000 1.000000
vt 0.000000 0.000000
vt 1.000000 0.000000
vt 0.000000 1.000000
vt 0.000000 0.000000
vt 1.000000 0.000000
vt 0.000000 1.000000
vt 0.000000 0.000000
vt 1.000000 0.000000
vt 0.000000 1.000000
vt 0.000000 0.000000
vt 1.000000 0.000000
vt 0.000000 1.000000
vt 0.000000 0.000000
vt 1.000000 0.000000
vt 0.000000 1.000000
vt 0.000000 0.000000
vt 1.000000 0.000000
vt 0.000000 1.000000
vt 0.000000 0.000000
vt 1.000000 0.000000
vt 0.000000 1.000000
vt 0.000000 0.000000
vt 1.000000 0.000000
vt 0.000000 1.000000
vt 0.000000 0.000000
vt 1.000000 0.000000
vt 0.000000 1.000000
vt 0.000000 0.000000
vt 1.000000 0.000000
vt 0.000000 1.000000
vt 0.000000 0.000000
vt 1.000000 0.000000
vt 0.000000 1.000000
vt 0.000000 0.000000
vt 1.000000 0.000000
vt 0.000000 1.000000
vt 0.000000 0.000000
vt 1.000000 0.000000
vt 0.000000 1.000000
vt 0.000000 0.000000
vt 1.000000 0.000000
vt 0.000000 1.000000
vt 0.000000 0.000000
vt 1.000000 0.000000
vt 0.000000 1.000000
vt 0.000000 0.000000
vt 1.000000 0.000000
vt 0.000000 1.000000
vt 0.000000 0.000000
vt 1.000000 0.000000
vt 0.000000 1.000000
vt 0.000000 0.000000
vt 1.000000 0.000000
vt 0.000000 1.000000
vt 1.000000 1.000000
vt 1.000000 1.000000
vt 1.000000 1.000000
vt 1.000000 1.000000
vt 1.000000 1.000000
vt 1.000000 1.000000
vt 1.000000 1.000000
vt 1.000000 1.000000
vt 1.000000 1.000000
vt 1.000000 1.000000
vt 1.000000 1.000000
vt 1.000000 1.000000
vt 1.000000 1.000000
vt 1.000000 1.000000
vt 1.000000 1.000000
vt 1.000000 1.000000
vt 1.000000 1.000000
vt 1.000000 1.000000
vt 1.000000 1.000000
vt 1.000000 1.000000
vt 1.000000 1.000000
vt 1.000000 1.000000
vt 1.000000 1.000000
vt 1.000000 1.000000
vt 1.000000 1.000000
vt 1.000000 1.000000
vt 1.000000 1.000000
vt 1.000000 1.000000
vt 1.000000 1.000000
vt 1.000000 1.000000
vt 1.000000 1.000000
vt 1.000000 1.000000
vt 0.691342 0.961940
vt 0.777785 0.915735
vt 0.853553 0.853553
vt 0.915735 0.777785
vt 0.961940 0.691342
vt 0.990393 0.597545
vt 1.000000 0.500000
vt 0.990393 0.402455
vt 0.961940 0.308658
vt 0.915735 0.222215
vt 0.853553 0.146447
vt 0.777785 0.084265
vt 0.691342 0.038060
vt 0.597545 0.009607
vt 0.308659 0.961940
vt 0.222215 0.915735
vt 0.146447 0.853554
vt 0.308658 0.038060
vt 0.500000 0.000000
vt 0.402455 0.009607
vt 0.222215 0.084265
vt 0.146446 0.146447
vt 0.084265 0.222215
vt 0.009607 0.402455
vt 0.038060 0.308659
vt 0.009607 0.597546
vt 0.000000 0.500000
vt 0.038060 0.691342
vt 0.084266 0.777786
vt 1.000000 1.000000
vt 1.000000 1.000000
vt 1.000000 1.000000
vt 1.000000 1.000000
vt 1.000000 1.000000
vt 1.000000 1.000000
vt 1.000000 1.000000
vt 1.000000 1.000000
vt 1.000000 1.000000
vt 1.000000 1.000000
vt 1.000000 1.000000
vt 1.000000 1.000000
vt 1.000000 1.000000
vt 1.000000 1.000000
vt 1.000000 1.000000
vt 1.000000 1.000000
vt 1.000000 1.000000
vt 1.000000 1.000000
vt 1.000000 1.000000
vt 1.000000 1.000000
vt 1.000000 1.000000
vt 1.000000 1.000000
vt 1.000000 1.000000
vt 1.000000 1.000000
vt 1.000000 1.000000
vt 1.000000 1.000000
vt 1.000000 1.000000
vt 1.000000 1.000000
vt 1.000000 1.000000
vt 1.000000 1.000000
vt 1.000000 1.000000
vt 1.000000 1.000000
vn 0.3723 -0.8098 -0.4535
vn 0.2494 -0.7761 -0.5791
vn 0.1283 -0.7096 -0.6929
vn 0.0136 -0.6126 -0.7903
vn -0.0902 -0.4890 -0.8676
vn -0.1791 -0.3435 -0.9219
vn -0.2498 -0.1816 -0.9511
vn -0.2995 -0.0097 -0.9541
vn -0.3262 0.1657 -0.9306
vn -0.3291 0.3379 -0.8818
vn -0.3079 0.5002 -0.8093
vn -0.2635 0.6464 -0.7161
vn -0.1976 0.7708 -0.6056
vn -0.1127 0.8688 -0.4822
vn -0.0121 0.9365 -0.3506
vn 0.1004 0.9713 -0.2158
vn 0.2204 0.9719 -0.0829
vn 0.3433 0.9382 0.0427
vn 0.4645 0.8717 0.1564
vn 0.5791 0.7747 0.2539
vn 0.6829 0.6511 0.3312
vn 0.7719 0.5056 0.3855
vn 0.8425 0.3437 0.4147
vn 0.8922 0.1718 0.4176
vn 0.9190 -0.0036 0.3942
vn 0.9219 -0.1758 0.3454
vn 0.9007 -0.3381 0.2729
vn 0.8563 -0.4843 0.1797
vn 0.7904 -0.6087 0.0692
vn 0.7054 -0.7067 -0.0542
vn 0.6048 -0.7744 -0.1859
vn 0.4924 -0.8092 -0.3207
vn -0.7267 -0.1987 0.6576
vn -0.3378 0.9369 -0.0902
vn -0.2146 0.9750 0.0575
vn -0.3097 -0.7597 -0.5718
vn -0.4234 -0.6243 -0.6565
vn 0.6850 -0.2813 0.6720
vn 0.6618 -0.4590 0.5927
vn -0.5208 -0.4650 -0.7160
vn -0.5982 -0.2877 -0.7479
vn -0.0832 0.9757 0.2029
vn 0.0514 0.9388 0.3405
vn 0.6132 -0.6192 0.4905
vn 0.6132 -0.6191 0.4905
vn 0.5410 -0.7555 0.3695
vn -0.6526 -0.0994 -0.7512
vn -0.6819 0.0927 -0.7255
vn 0.1841 0.8659 0.4651
vn 0.3097 0.7597 0.5718
vn 0.4480 -0.8627 0.2344
vn 0.3378 -0.9369 0.0902
vn 0.2146 -0.9750 -0.0575
vn -0.6850 0.2813 -0.6720
vn -0.6618 0.4591 -0.5926
vn 0.4234 0.6243 0.6565
vn 0.5208 0.4650 0.7160
vn -0.6132 0.6191 -0.4905
vn -0.5410 0.7555 -0.3695
vn -0.4480 0.8627 -0.2344
vn 0.0832 -0.9757 -0.2029
vn -0.0514 -0.9388 -0.3405
vn -0.1841 -0.8659 -0.4651
vn 0.5982 0.2877 0.7479
vn 0.6526 0.0994 0.7512
vn 0.6819 -0.0927 0.7255
usemtl None
s 1
f 1/1/1 2/2/1 3/3/1
f 1/1/2 3/4/2 4/5/2
f 1/1/3 4/6/3 5/7/3
f 1/1/4 5/8/4 6/9/4
f 1/1/5 6/10/5 7/11/5
f 1/1/6 7/12/6 8/13/6
f 1/1/7 8/14/7 9/15/7
f 1/1/8 9/16/8 10/17/8
f 1/1/9 10/18/9 11/19/9
f 1/1/10 11/20/10 12/21/10
f 1/1/11 12/22/11 13/23/11
f 1/1/12 13/24/12 14/25/12
f 1/1/13 14/26/13 15/27/13
f 1/1/14 15/28/14 16/29/14
f 1/1/15 16/30/15 17/31/15
f 1/1/16 17/32/16 18/33/16
f 1/1/17 18/34/17 19/35/17
f 1/1/18 19/36/18 20/37/18
f 1/1/19 20/38/19 21/39/19
f 1/1/20 21/40/20 22/41/20
f 1/1/21 22/42/21 23/43/21
f 1/1/22 23/44/22 24/45/22
f 1/1/23 24/46/23 25/47/23
f 1/1/24 25/48/24 26/49/24
f 1/1/25 26/50/25 27/51/25
f 1/1/26 27/52/26 28/53/26
f 1/1/27 28/54/27 29/55/27
f 1/1/28 29/56/28 30/57/28
f 1/1/29 30/58/29 31/59/29
f 1/1/30 31/60/30 32/61/30
f 1/1/31 32/62/31 33/63/31
f 1/1/32 33/64/32 2/65/32
f 24/66/33 23/44/33 34/67/33
f 13/68/33 12/22/33 35/69/33
f 2/70/33 33/64/33 36/71/33
f 23/72/33 22/42/33 37/73/33
f 12/74/33 11/20/33 38/75/33
f 33/76/33 32/62/33 39/77/33
f 22/78/33 21/40/33 40/79/33
f 11/80/33 10/18/33 41/81/33
f 32/82/33 31/60/33 42/83/33
f 21/84/33 20/38/33 43/85/33
f 10/86/33 9/16/33 44/87/33
f 31/88/33 30/58/33 45/89/33
f 20/90/33 19/36/33 46/91/33
f 9/92/33 8/14/33 47/93/33
f 30/94/33 29/56/33 48/95/33
f 19/96/33 18/34/33 49/97/33
f 3/98/33 2/2/33 50/99/33
f 8/100/33 7/12/33 51/101/33
f 29/102/33 28/54/33 52/103/33
f 7/104/33 6/10/33 53/105/33
f 18/106/33 17/32/33 54/107/33
f 28/108/33 27/52/33 55/109/33
f 6/110/33 5/8/33 56/111/33
f 17/112/33 16/30/33 57/113/33
f 27/114/33 26/50/33 58/115/33
f 5/116/33 4/6/33 59/117/33
f 16/118/33 15/28/33 60/119/33
f 26/120/33 25/48/33 61/121/33
f 4/122/33 3/4/33 62/123/33
f 15/124/33 14/26/33 63/125/33
f 25/126/33 24/46/33 64/127/33
f 14/128/33 13/24/33 65/129/33
f 66/130/33 67/131/33 68/132/33
f 57/133/34 60/134/34 69/135/34
f 54/136/35 57/137/35 70/138/35
f 56/139/36 59/140/36 71/141/36
f 53/142/37 56/143/37 72/144/37
f 55/145/38 58/146/38 73/147/38
f 52/148/39 55/149/39 74/150/39
f 51/151/40 53/152/40 75/153/40
f 47/154/41 51/155/41 76/156/41
f 49/157/42 54/158/42 77/159/42
f 46/160/43 49/161/43 67/162/43
f 48/163/44 52/164/44 78/165/45
f 45/166/46 48/167/46 79/168/46
f 44/169/47 47/170/47 80/171/47
f 41/172/48 44/173/48 81/174/48
f 43/175/49 46/176/49 66/177/49
f 40/178/50 43/179/50 68/180/50
f 42/181/51 45/182/51 82/183/51
f 39/184/52 42/185/52 83/186/52
f 36/187/53 39/188/53 84/189/53
f 38/190/54 41/191/54 85/192/54
f 35/193/55 38/194/55 86/195/55
f 37/196/56 40/197/56 87/198/56
f 34/199/57 37/200/57 88/201/57
f 65/202/58 35/203/58 89/204/58
f 63/205/59 65/206/59 90/207/59
f 60/208/60 63/209/60 91/210/60
f 50/211/61 36/212/61 92/213/61
f 62/214/62 50/215/62 93/216/62
f 59/217/63 62/218/63 94/219/63
f 64/220/64 34/221/64 95/222/64
f 61/223/65 64/224/65 96/225/65
f 58/226/66 61/227/66 97/228/66
f 23/44/33 37/229/33 34/67/33
f 12/22/33 38/230/33 35/69/33
f 33/64/33 39/231/33 36/71/33
f 22/42/33 40/232/33 37/73/33
f 11/20/33 41/233/33 38/75/33
f 32/62/33 42/234/33 39/77/33
f 21/40/33 43/235/33 40/79/33
f 10/18/33 44/236/33 41/81/33
f 31/60/33 45/237/33 42/83/33
f 20/38/33 46/238/33 43/85/33
f 9/16/33 47/239/33 44/87/33
f 30/58/33 48/240/33 45/89/33
f 19/36/33 49/241/33 46/91/33
f 8/14/33 51/242/33 47/93/33
f 29/56/33 52/243/33 48/95/33
f 18/34/33 54/244/33 49/97/33
f 2/2/33 36/245/33 50/99/33
f 7/12/33 53/246/33 51/101/33
f 28/54/33 55/247/33 52/103/33
f 6/10/33 56/248/33 53/105/33
f 17/32/33 57/249/33 54/107/33
f 27/52/33 58/250/33 55/109/33
f 5/8/33 59/251/33 56/111/33
f 16/30/33 60/252/33 57/113/33
f 26/50/33 61/253/33 58/115/33
f 4/6/33 62/254/33 59/117/33
f 15/28/33 63/255/33 60/119/33
f 25/48/33 64/256/33 61/121/33
f 3/4/33 50/257/33 62/123/33
f 14/26/33 65/258/33 63/125/33
f 24/46/33 34/259/33 64/127/33
f 13/24/33 35/260/33 65/129/33
f 67/131/33 77/261/33 68/132/33
f 77/261/33 70/262/33 68/132/33
f 70/262/33 69/263/33 68/132/33
f 69/263/33 91/264/33 68/132/33
f 91/264/33 90/265/33 68/132/33
f 90/265/33 89/266/33 68/132/33
f 89/266/33 86/267/33 68/132/33
f 86/267/33 85/268/33 68/132/33
f 85/268/33 81/269/33 68/132/33
f 81/269/33 80/270/33 68/132/33
f 80/270/33 76/271/33 68/132/33
f 76/271/33 75/272/33 68/132/33
f 75/272/33 72/273/33 71/274/33
f 68/132/33 75/272/33 71/274/33
f 87/275/33 68/132/33 71/274/33
f 88/276/33 87/275/33 71/274/33
f 95/277/33 88/276/33 71/274/33
f 92/278/33 94/279/33 93/280/33
f 92/278/33 71/274/33 94/279/33
f 84/281/33 71/274/33 92/278/33
f 83/282/33 71/274/33 84/281/33
f 82/283/33 71/274/33 83/282/33
f 78/284/33 82/283/33 79/285/33
f 78/284/33 71/274/33 82/283/33
f 73/286/33 78/284/33 74/287/33
f 73/286/33 71/274/33 78/284/33
f 97/288/33 96/289/33 73/286/33
f 96/289/33 95/277/33 71/274/33
f 73/286/33 96/289/33 71/274/33
f 60/134/34 91/290/34 69/135/34
f 57/137/35 69/291/35 70/138/35
f 59/140/36 94/292/36 71/141/36
f 56/143/37 71/293/37 72/144/37
f 58/146/38 97/294/38 73/147/38
f 55/149/39 73/295/39 74/150/39
f 53/152/40 72/296/40 75/153/40
f 51/155/41 75/297/41 76/156/41
f 54/158/42 70/298/42 77/159/42
f 49/161/43 77/299/43 67/162/43
f 52/164/44 74/300/45 78/165/45
f 48/167/46 78/301/46 79/168/46
f 47/170/47 76/302/47 80/171/47
f 44/173/48 80/303/48 81/174/48
f 46/176/49 67/304/49 66/177/49
f 43/179/50 66/305/50 68/180/50
f 45/182/51 79/306/51 82/183/51
f 42/185/52 82/307/52 83/186/52
f 39/188/53 83/308/53 84/189/53
f 41/191/54 81/309/54 85/192/54
f 38/194/55 85/310/55 86/195/55
f 40/197/56 68/311/56 87/198/56
f 37/200/57 87/312/57 88/201/57
f 35/203/58 86/313/58 89/204/58
f 65/206/59 89/314/59 90/207/59
f 63/209/60 90/315/60 91/210/60
f 36/212/61 84/316/61 92/213/61
f 50/215/62 92/317/62 93/216/62
f 62/218/63 93/318/63 94/219/63
f 34/221/64 88/319/64 95/222/64
f 64/224/65 95/320/65 96/225/65
f 61/227/66 96/321/66 97/228/66
