# Blender v2.79 (sub 0) OBJ File: ''
# www.blender.org
mtllib arrow3.mtl
o narrowarrow.001
v 0.000000 0.000000 -0.986570
v 0.000000 -0.218399 -0.500000
v -0.042608 -0.214202 -0.500000
v -0.083578 -0.201774 -0.500000
v -0.121336 -0.181592 -0.500000
v -0.154431 -0.154431 -0.500000
v -0.181592 -0.121336 -0.500000
v -0.201774 -0.083578 -0.500000
v -0.214202 -0.042608 -0.500000
v -0.218399 0.000000 -0.500000
v -0.214202 0.042607 -0.500000
v -0.201774 0.083578 -0.500000
v -0.181592 0.121336 -0.500000
v -0.154431 0.154431 -0.500000
v -0.121336 0.181592 -0.500000
v -0.083578 0.201774 -0.500000
v -0.042607 0.214202 -0.500000
v 0.000000 0.218399 -0.500000
v 0.042608 0.214202 -0.500000
v 0.083578 0.201774 -0.500000
v 0.121336 0.181592 -0.500000
v 0.154431 0.154431 -0.500000
v 0.181592 0.121336 -0.500000
v 0.201774 0.083577 -0.500000
v 0.214202 0.042607 -0.500000
v 0.218399 0.000000 -0.500000
v 0.214202 -0.042608 -0.500000
v 0.201774 -0.083578 -0.500000
v 0.181592 -0.121336 -0.500000
v 0.154431 -0.154432 -0.500000
v 0.121336 -0.181592 -0.500000
v 0.083577 -0.201774 -0.500000
v 0.042607 -0.214202 -0.500000
v 0.116799 0.048380 -0.500000
v -0.105116 0.070236 -0.500000
v 0.000000 -0.126422 -0.500000
v 0.105116 0.070236 -0.500000
v -0.116799 0.048380 -0.500000
v 0.024664 -0.123993 -0.500000
v 0.089394 0.089394 -0.500000
v -0.123993 0.024664 -0.500000
v 0.048380 -0.116799 -0.500000
v 0.070236 0.105116 -0.500000
v -0.126422 0.000000 -0.500000
v 0.070236 -0.105116 -0.500000
v 0.048380 0.116799 -0.500000
v -0.123993 -0.024664 -0.500000
v 0.089394 -0.089394 -0.500000
v 0.024664 0.123993 -0.500000
v -0.024664 -0.123993 -0.500000
v -0.116799 -0.048380 -0.500000
v 0.105116 -0.070237 -0.500000
v -0.105116 -0.070236 -0.500000
v 0.000000 0.126422 -0.500000
v 0.116799 -0.048380 -0.500000
v -0.089394 -0.089394 -0.500000
v -0.024664 0.123993 -0.500000
v 0.123993 -0.024664 -0.500000
v -0.070236 -0.105116 -0.500000
v -0.048380 0.116799 -0.500000
v 0.126422 0.000000 -0.500000
v -0.048380 -0.116799 -0.500000
v -0.070236 0.105116 -0.500000
v 0.123993 0.024664 -0.500000
v -0.089394 0.089394 -0.500000
v 0.070236 0.105116 0.983070
v 0.048380 0.116799 0.983070
v 0.089394 0.089394 0.983070
v -0.024664 0.123993 0.983070
v 0.000000 0.126422 0.983070
v -0.089394 -0.089394 0.983070
v -0.105116 -0.070236 0.983070
v 0.116799 -0.048380 0.983070
v 0.105116 -0.070237 0.983070
v -0.116799 -0.048380 0.983070
v -0.123993 -0.024664 0.983070
v 0.024664 0.123993 0.983070
v 0.089394 -0.089394 0.983070
v 0.070236 -0.105116 0.983070
v -0.126422 0.000000 0.983070
v -0.123993 0.024664 0.983070
v 0.048380 -0.116799 0.983070
v 0.024664 -0.123993 0.983070
v 0.000000 -0.126422 0.983070
v -0.116799 0.048380 0.983070
v -0.105116 0.070236 0.983070
v 0.105116 0.070236 0.983070
v 0.116799 0.048380 0.983070
v -0.089394 0.089394 0.983070
v -0.070236 0.105116 0.983070
v -0.048380 0.116799 0.983070
v -0.024664 -0.123993 0.983070
v -0.048380 -0.116799 0.983070
v -0.070236 -0.105116 0.983070
v 0.123993 0.024664 0.983070
v 0.126422 0.000000 0.983070
v 0.123993 -0.024664 0.983070
vt 0.000000 0.000000
vt 1.000000 0.000000
vt 1.000000 1.000000
vt 1.000000 0.000000
vt 1.000000 1.000000
vt 1.000000 0.000000
vt 1.000000 1.000000
vt 1.000000 0.000000
vt 1.000000 1.000000
vt 1.000000 0.000000
vt 1.000000 1.000000
vt 1.000000 0.000000
vt 1.000000 1.000000
vt 1.000000 0.000000
vt 1.000000 1.000000
vt 1.000000 0.000000
vt 1.000000 1.000000
vt 1.000000 0.000000
vt 1.000000 1.000000
vt 1.000000 0.000000
vt 1.000000 1.000000
vt 1.000000 0.000000
vt 1.000000 1.000000
vt 1.000000 0.000000
vt 1.000000 1.000000
vt 1.000000 0.000000
vt 1.000000 1.000000
vt 1.000000 0.000000
vt 1.000000 1.000000
vt 1.000000 0.000000
vt 1.000000 1.000000
vt 1.000000 0.000000
vt 1.000000 1.000000
vt 1.000000 0.000000
vt 1.000000 1.000000
vt 1.000000 0.000000
vt 1.000000 1.000000
vt 1.000000 0.000000
vt 1.000000 1.000000
vt 1.000000 0.000000
vt 1.000000 1.000000
vt 1.000000 0.000000
vt 1.000000 1.000000
vt 1.000000 0.000000
vt 1.000000 1.000000
vt 1.000000 0.000000
vt 1.000000 1.000000
vt 1.000000 0.000000
vt 1.000000 1.000000
vt 1.000000 0.000000
vt 1.000000 1.000000
vt 1.000000 0.000000
vt 1.000000 1.000000
vt 1.000000 0.000000
vt 1.000000 1.000000
vt 1.000000 0.000000
vt 1.000000 1.000000
vt 1.000000 0.000000
vt 1.000000 1.000000
vt 1.000000 0.000000
vt 1.000000 1.000000
vt 1.000000 0.000000
vt 1.000000 1.000000
vt 1.000000 0.000000
vt 1.000000 1.000000
vt 0.000000 0.000000
vt 0.000000 1.000000
vt 0.000000 0.000000
vt 0.000000 1.000000
vt 0.000000 0.000000
vt 0.000000 1.000000
vt 0.000000 0.000000
vt 0.000000 1.000000
vt 0.000000 0.000000
vt 0.000000 1.000000
vt 0.000000 0.000000
vt 0.000000 1.000000
vt 0.000000 0.000000
vt 0.000000 1.000000
vt 0.000000 0.000000
vt 0.000000 1.000000
vt 0.000000 0.000000
vt 0.000000 1.000000
vt 0.000000 0.000000
vt 0.000000 1.000000
vt 0.000000 0.000000
vt 0.000000 1.000000
vt 0.000000 0.000000
vt 0.000000 1.000000
vt 0.000000 0.000000
vt 0.000000 1.000000
vt 0.000000 0.000000
vt 0.000000 1.000000
vt 0.000000 0.000000
vt 0.000000 1.000000
vt 0.000000 0.000000
vt 0.000000 1.000000
vt 0.000000 0.000000
vt 0.000000 1.000000
vt 0.000000 0.000000
vt 0.000000 1.000000
vt 0.000000 0.000000
vt 0.000000 1.000000
vt 0.000000 0.000000
vt 0.000000 1.000000
vt 0.000000 0.000000
vt 0.000000 1.000000
vt 0.000000 0.000000
vt 0.000000 1.000000
vt 0.000000 0.000000
vt 0.000000 1.000000
vt 0.000000 0.000000
vt 0.000000 1.000000
vt 0.000000 0.000000
vt 0.000000 1.000000
vt 0.000000 0.000000
vt 0.000000 1.000000
vt 0.000000 0.000000
vt 0.000000 1.000000
vt 0.000000 0.000000
vt 0.000000 1.000000
vt 0.000000 0.000000
vt 0.000000 1.000000
vt 0.000000 0.000000
vt 0.000000 1.000000
vt 0.000000 0.000000
vt 0.000000 1.000000
vt 0.000000 0.000000
vt 0.000000 1.000000
vt 0.500000 1.000000
vt 0.597545 0.990393
vt 0.402456 0.990393
vt 0.000000 0.000000
vt 1.000000 0.000000
vt 0.000000 1.000000
vt 0.000000 0.000000
vt 1.000000 0.000000
vt 0.000000 1.000000
vt 0.000000 0.000000
vt 1.000000 0.000000
vt 0.000000 1.000000
vt 0.000000 0.000000
vt 1.000000 0.000000
vt 0.000000 1.000000
vt 0.000000 0.000000
vt 1.000000 0.000000
vt 0.000000 1.000000
vt 0.000000 0.000000
vt 1.000000 0.000000
vt 0.000000 1.000000
vt 0.000000 0.000000
vt 1.000000 0.000000
vt 0.000000 1.000000
vt 0.000000 0.000000
vt 1.000000 0.000000
vt 0.000000 1.000000
vt 0.000000 0.000000
vt 1.000000 0.000000
vt 0.000000 1.000000
vt 0.000000 0.000000
vt 1.000000 0.000000
vt 0.000000 1.000000
vt 0.000000 0.000000
vt 1.000000 0.000000
vt 0.000000 1.000000
vt 0.000000 0.000000
vt 1.000000 0.000000
vt 0.000000 1.000000
vt 0.000000 0.000000
vt 1.000000 0.000000
vt 0.000000 1.000000
vt 0.000000 0.000000
vt 1.000000 0.000000
vt 0.000000 1.000000
vt 0.000000 0.000000
vt 1.000000 0.000000
vt 0.000000 1.000000
vt 0.000000 0.000000
vt 1.000000 0.000000
vt 0.000000 1.000000
vt 0.000000 0.000000
vt 1.000000 0.000000
vt 0.000000 1.000000
vt 0.000000 0.000000
vt 1.000000 0.000000
vt 0.000000 1.000000
vt 0.000000 0.000000
vt 1.000000 0.000000
vt 0.000000 1.000000
vt 0.000000 0.000000
vt 1.000000 0.000000
vt 0.000000 1.000000
vt 0.000000 0.000000
vt 1.000000 0.000000
vt 0.000000 1.000000
vt 0.000000 0.000000
vt 1.000000 0.000000
vt 0.000000 1.000000
vt 0.000000 0.000000
vt 1.000000 0.000000
vt 0.000000 1.000000
vt 0.000000 0.000000
vt 1.000000 0.000000
vt 0.000000 1.000000
vt 0.000000 0.000000
vt 1.000000 0.000000
vt 0.000000 1.000000
vt 0.000000 0.000000
vt 1.000000 0.000000
vt 0.000000 1.000000
vt 0.000000 0.000000
vt 1.000000 0.000000
vt 0.000000 1.000000
vt 0.000000 0.000000
vt 1.000000 0.000000
vt 0.000000 1.000000
vt 0.000000 0.000000
vt 1.000000 0.000000
vt 0.000000 1.000000
vt 0.000000 0.000000
vt 1.000000 0.000000
vt 0.000000 1.000000
vt 0.000000 0.000000
vt 1.000000 0.000000
vt 0.000000 1.000000
vt 0.000000 0.000000
vt 1.000000 0.000000
vt 0.000000 1.000000
vt 1.000000 1.000000
vt 1.000000 1.000000
vt 1.000000 1.000000
vt 1.000000 1.000000
vt 1.000000 1.000000
vt 1.000000 1.000000
vt 1.000000 1.000000
vt 1.000000 1.000000
vt 1.000000 1.000000
vt 1.000000 1.000000
vt 1.000000 1.000000
vt 1.000000 1.000000
vt 1.000000 1.000000
vt 1.000000 1.000000
vt 1.000000 1.000000
vt 1.000000 1.000000
vt 1.000000 1.000000
vt 1.000000 1.000000
vt 1.000000 1.000000
vt 1.000000 1.000000
vt 1.000000 1.000000
vt 1.000000 1.000000
vt 1.000000 1.000000
vt 1.000000 1.000000
vt 1.000000 1.000000
vt 1.000000 1.000000
vt 1.000000 1.000000
vt 1.000000 1.000000
vt 1.000000 1.000000
vt 1.000000 1.000000
vt 1.000000 1.000000
vt 1.000000 1.000000
vt 0.691342 0.961940
vt 0.777785 0.915735
vt 0.853553 0.853553
vt 0.915735 0.777785
vt 0.961940 0.691342
vt 0.990393 0.597545
vt 1.000000 0.500000
vt 0.990393 0.402455
vt 0.961940 0.308658
vt 0.915735 0.222215
vt 0.853553 0.146447
vt 0.777785 0.084265
vt 0.691342 0.038060
vt 0.597545 0.009607
vt 0.308659 0.961940
vt 0.222215 0.915735
vt 0.146447 0.853554
vt 0.308658 0.038060
vt 0.500000 0.000000
vt 0.402455 0.009607
vt 0.222215 0.084265
vt 0.146446 0.146447
vt 0.084265 0.222215
vt 0.009607 0.402455
vt 0.038060 0.308659
vt 0.009607 0.597546
vt 0.000000 0.500000
vt 0.038060 0.691342
vt 0.084266 0.777786
vt 1.000000 1.000000
vt 1.000000 1.000000
vt 1.000000 1.000000
vt 1.000000 1.000000
vt 1.000000 1.000000
vt 1.000000 1.000000
vt 1.000000 1.000000
vt 1.000000 1.000000
vt 1.000000 1.000000
vt 1.000000 1.000000
vt 1.000000 1.000000
vt 1.000000 1.000000
vt 1.000000 1.000000
vt 1.000000 1.000000
vt 1.000000 1.000000
vt 1.000000 1.000000
vt 1.000000 1.000000
vt 1.000000 1.000000
vt 1.000000 1.000000
vt 1.000000 1.000000
vt 1.000000 1.000000
vt 1.000000 1.000000
vt 1.000000 1.000000
vt 1.000000 1.000000
vt 1.000000 1.000000
vt 1.000000 1.000000
vt 1.000000 1.000000
vt 1.000000 1.000000
vt 1.000000 1.000000
vt 1.000000 1.000000
vt 1.000000 1.000000
vt 1.000000 1.000000
vn -0.0895 -0.9087 -0.4079
vn -0.2650 -0.8737 -0.4079
vn -0.4304 -0.8052 -0.4079
vn -0.5792 -0.7058 -0.4079
vn -0.7058 -0.5792 -0.4079
vn -0.8052 -0.4304 -0.4079
vn -0.8737 -0.2650 -0.4079
vn -0.9087 -0.0895 -0.4079
vn -0.9087 0.0895 -0.4079
vn -0.8737 0.2650 -0.4079
vn -0.8052 0.4304 -0.4079
vn -0.7058 0.5792 -0.4079
vn -0.5792 0.7058 -0.4079
vn -0.4304 0.8052 -0.4079
vn -0.2650 0.8737 -0.4079
vn -0.0895 0.9087 -0.4079
vn 0.0895 0.9087 -0.4079
vn 0.2650 0.8737 -0.4079
vn 0.4304 0.8052 -0.4079
vn 0.5792 0.7058 -0.4079
vn 0.7058 0.5792 -0.4079
vn 0.8052 0.4304 -0.4079
vn 0.8737 0.2650 -0.4079
vn 0.9087 0.0895 -0.4079
vn 0.9087 -0.0895 -0.4079
vn 0.8737 -0.2650 -0.4079
vn 0.8052 -0.4304 -0.4079
vn 0.7058 -0.5792 -0.4079
vn 0.5792 -0.7058 -0.4079
vn 0.4304 -0.8052 -0.4079
vn 0.2650 -0.8737 -0.4079
vn 0.0895 -0.9087 -0.4079
vn 0.0000 0.0000 1.0000
vn -0.2903 0.9569 0.0000
vn -0.0980 0.9952 0.0000
vn -0.6344 -0.7730 0.0000
vn -0.7730 -0.6344 0.0000
vn 0.9569 -0.2903 0.0000
vn 0.8819 -0.4714 0.0000
vn -0.8819 -0.4714 0.0000
vn -0.9569 -0.2903 0.0000
vn 0.0980 0.9952 0.0000
vn 0.2903 0.9569 0.0000
vn 0.7730 -0.6344 0.0000
vn 0.6344 -0.7730 0.0000
vn -0.9952 -0.0980 0.0000
vn -0.9952 0.0980 0.0000
vn 0.4714 0.8819 0.0000
vn 0.6344 0.7730 0.0000
vn 0.4714 -0.8819 0.0000
vn 0.2903 -0.9569 0.0000
vn 0.0980 -0.9952 0.0000
vn -0.9569 0.2903 0.0000
vn -0.8819 0.4714 0.0000
vn 0.7730 0.6344 0.0000
vn 0.8819 0.4714 0.0000
vn -0.7730 0.6344 0.0000
vn -0.6344 0.7730 0.0000
vn -0.4714 0.8819 0.0000
vn -0.0980 -0.9952 0.0000
vn -0.2903 -0.9569 0.0000
vn -0.4714 -0.8819 0.0000
vn 0.9569 0.2903 0.0000
vn 0.9952 0.0980 0.0000
vn 0.9952 -0.0980 0.0000
usemtl None
s 1
f 1/1/1 2/2/1 3/3/1
f 1/1/2 3/4/2 4/5/2
f 1/1/3 4/6/3 5/7/3
f 1/1/4 5/8/4 6/9/4
f 1/1/5 6/10/5 7/11/5
f 1/1/6 7/12/6 8/13/6
f 1/1/7 8/14/7 9/15/7
f 1/1/8 9/16/8 10/17/8
f 1/1/9 10/18/9 11/19/9
f 1/1/10 11/20/10 12/21/10
f 1/1/11 12/22/11 13/23/11
f 1/1/12 13/24/12 14/25/12
f 1/1/13 14/26/13 15/27/13
f 1/1/14 15/28/14 16/29/14
f 1/1/15 16/30/15 17/31/15
f 1/1/16 17/32/16 18/33/16
f 1/1/17 18/34/17 19/35/17
f 1/1/18 19/36/18 20/37/18
f 1/1/19 20/38/19 21/39/19
f 1/1/20 21/40/20 22/41/20
f 1/1/21 22/42/21 23/43/21
f 1/1/22 23/44/22 24/45/22
f 1/1/23 24/46/23 25/47/23
f 1/1/24 25/48/24 26/49/24
f 1/1/25 26/50/25 27/51/25
f 1/1/26 27/52/26 28/53/26
f 1/1/27 28/54/27 29/55/27
f 1/1/28 29/56/28 30/57/28
f 1/1/29 30/58/29 31/59/29
f 1/1/30 31/60/30 32/61/30
f 1/1/31 32/62/31 33/63/31
f 1/1/32 33/64/32 2/65/32
f 24/66/33 23/44/33 34/67/33
f 13/68/33 12/22/33 35/69/33
f 2/70/33 33/64/33 36/71/33
f 23/72/33 22/42/33 37/73/33
f 12/74/33 11/20/33 38/75/33
f 33/76/33 32/62/33 39/77/33
f 22/78/33 21/40/33 40/79/33
f 11/80/33 10/18/33 41/81/33
f 32/82/33 31/60/33 42/83/33
f 21/84/33 20/38/33 43/85/33
f 10/86/33 9/16/33 44/87/33
f 31/88/33 30/58/33 45/89/33
f 20/90/33 19/36/33 46/91/33
f 9/92/33 8/14/33 47/93/33
f 30/94/33 29/56/33 48/95/33
f 19/96/33 18/34/33 49/97/33
f 3/98/33 2/2/33 50/99/33
f 8/100/33 7/12/33 51/101/33
f 29/102/33 28/54/33 52/103/33
f 7/104/33 6/10/33 53/105/33
f 18/106/33 17/32/33 54/107/33
f 28/108/33 27/52/33 55/109/33
f 6/110/33 5/8/33 56/111/33
f 17/112/33 16/30/33 57/113/33
f 27/114/33 26/50/33 58/115/33
f 5/116/33 4/6/33 59/117/33
f 16/118/33 15/28/33 60/119/33
f 26/120/33 25/48/33 61/121/33
f 4/122/33 3/4/33 62/123/33
f 15/124/33 14/26/33 63/125/33
f 25/126/33 24/46/33 64/127/33
f 14/128/33 13/24/33 65/129/33
f 66/130/33 67/131/33 68/132/33
f 57/133/34 60/134/34 69/135/34
f 54/136/35 57/137/35 70/138/35
f 56/139/36 59/140/36 71/141/36
f 53/142/37 56/143/37 72/144/37
f 55/145/38 58/146/38 73/147/38
f 52/148/39 55/149/39 74/150/39
f 51/151/40 53/152/40 75/153/40
f 47/154/41 51/155/41 76/156/41
f 49/157/42 54/158/42 77/159/42
f 46/160/43 49/161/43 67/162/43
f 48/163/44 52/164/44 78/165/44
f 45/166/45 48/167/45 79/168/45
f 44/169/46 47/170/46 80/171/46
f 41/172/47 44/173/47 81/174/47
f 43/175/48 46/176/48 66/177/48
f 40/178/49 43/179/49 68/180/49
f 42/181/50 45/182/50 82/183/50
f 39/184/51 42/185/51 83/186/51
f 36/187/52 39/188/52 84/189/52
f 38/190/53 41/191/53 85/192/53
f 35/193/54 38/194/54 86/195/54
f 37/196/55 40/197/55 87/198/55
f 34/199/56 37/200/56 88/201/56
f 65/202/57 35/203/57 89/204/57
f 63/205/58 65/206/58 90/207/58
f 60/208/59 63/209/59 91/210/59
f 50/211/60 36/212/60 92/213/60
f 62/214/61 50/215/61 93/216/61
f 59/217/62 62/218/62 94/219/62
f 64/220/63 34/221/63 95/222/63
f 61/223/64 64/224/64 96/225/64
f 58/226/65 61/227/65 97/228/65
f 23/44/33 37/229/33 34/67/33
f 12/22/33 38/230/33 35/69/33
f 33/64/33 39/231/33 36/71/33
f 22/42/33 40/232/33 37/73/33
f 11/20/33 41/233/33 38/75/33
f 32/62/33 42/234/33 39/77/33
f 21/40/33 43/235/33 40/79/33
f 10/18/33 44/236/33 41/81/33
f 31/60/33 45/237/33 42/83/33
f 20/38/33 46/238/33 43/85/33
f 9/16/33 47/239/33 44/87/33
f 30/58/33 48/240/33 45/89/33
f 19/36/33 49/241/33 46/91/33
f 8/14/33 51/242/33 47/93/33
f 29/56/33 52/243/33 48/95/33
f 18/34/33 54/244/33 49/97/33
f 2/2/33 36/245/33 50/99/33
f 7/12/33 53/246/33 51/101/33
f 28/54/33 55/247/33 52/103/33
f 6/10/33 56/248/33 53/105/33
f 17/32/33 57/249/33 54/107/33
f 27/52/33 58/250/33 55/109/33
f 5/8/33 59/251/33 56/111/33
f 16/30/33 60/252/33 57/113/33
f 26/50/33 61/253/33 58/115/33
f 4/6/33 62/254/33 59/117/33
f 15/28/33 63/255/33 60/119/33
f 25/48/33 64/256/33 61/121/33
f 3/4/33 50/257/33 62/123/33
f 14/26/33 65/258/33 63/125/33
f 24/46/33 34/259/33 64/127/33
f 13/24/33 35/260/33 65/129/33
f 67/131/33 77/261/33 68/132/33
f 77/261/33 70/262/33 68/132/33
f 70/262/33 69/263/33 68/132/33
f 69/263/33 91/264/33 68/132/33
f 91/264/33 90/265/33 68/132/33
f 90/265/33 89/266/33 68/132/33
f 89/266/33 86/267/33 68/132/33
f 86/267/33 85/268/33 68/132/33
f 85/268/33 81/269/33 68/132/33
f 81/269/33 80/270/33 68/132/33
f 80/270/33 76/271/33 68/132/33
f 76/271/33 75/272/33 68/132/33
f 75/272/33 72/273/33 71/274/33
f 68/132/33 75/272/33 71/274/33
f 87/275/33 68/132/33 71/274/33
f 88/276/33 87/275/33 71/274/33
f 95/277/33 88/276/33 71/274/33
f 92/278/33 94/279/33 93/280/33
f 92/278/33 71/274/33 94/279/33
f 84/281/33 71/274/33 92/278/33
f 83/282/33 71/274/33 84/281/33
f 82/283/33 71/274/33 83/282/33
f 78/284/33 82/283/33 79/285/33
f 78/284/33 71/274/33 82/283/33
f 73/286/33 78/284/33 74/287/33
f 73/286/33 71/274/33 78/284/33
f 97/288/33 96/289/33 73/286/33
f 96/289/33 95/277/33 71/274/33
f 73/286/33 96/289/33 71/274/33
f 60/134/34 91/290/34 69/135/34
f 57/137/35 69/291/35 70/138/35
f 59/140/36 94/292/36 71/141/36
f 56/143/37 71/293/37 72/144/37
f 58/146/38 97/294/38 73/147/38
f 55/149/39 73/295/39 74/150/39
f 53/152/40 72/296/40 75/153/40
f 51/155/41 75/297/41 76/156/41
f 54/158/42 70/298/42 77/159/42
f 49/161/43 77/299/43 67/162/43
f 52/164/44 74/300/44 78/165/44
f 48/167/45 78/301/45 79/168/45
f 47/170/46 76/302/46 80/171/46
f 44/173/47 80/303/47 81/174/47
f 46/176/48 67/304/48 66/177/48
f 43/179/49 66/305/49 68/180/49
f 45/182/50 79/306/50 82/183/50
f 42/185/51 82/307/51 83/186/51
f 39/188/52 83/308/52 84/189/52
f 41/191/53 81/309/53 85/192/53
f 38/194/54 85/310/54 86/195/54
f 40/197/55 68/311/55 87/198/55
f 37/200/56 87/312/56 88/201/56
f 35/203/57 86/313/57 89/204/57
f 65/206/58 89/314/58 90/207/58
f 63/209/59 90/315/59 91/210/59
f 36/212/60 84/316/60 92/213/60
f 50/215/61 92/317/61 93/216/61
f 62/218/62 93/318/62 94/219/62
f 34/221/63 88/319/63 95/222/63
f 64/224/64 95/320/64 96/225/64
f 61/227/65 96/321/65 97/228/65
